<svg xmlns="http://www.w3.org/2000/svg" width="173" height="33" viewBox="0 0 173 33">
  <defs>
    <style>
      .cls-1 {
        fill: #9b8ffa;
      }

      .cls-1, .cls-2, .cls-3, .cls-4 {
        fill-rule: evenodd;
      }

      .cls-2 {
        fill: #8d70f8;
      }

      .cls-3 {
        fill: #613cea;
      }

      .cls-4 {
        fill: #2a3544;
      }
    </style>
  </defs>
  <path id="Ellipse_2_copy_2" data-name="Ellipse 2 copy 2" class="cls-1" d="M46.9,0.187c2.876,0.791,10.322,3.824,9.436,13.891A12.969,12.969,0,0,1,45.911,24.485l-6.517-.006a1.98,1.98,0,0,1-1.776-2.852s2.242-5.267,2.368-5.527a1.979,1.979,0,0,1,1.784-1.12c1.093,0,2.586.026,2.586,0.026s2,0.345,2.206-2.211l0.063-.789a2.93,2.93,0,0,0-1.767-3.057l-0.864-.065c-1.453-.057-0.727-1.692-0.726-1.7l2.065-5.661S45.8-.518,46.9.187Z"/>
  <path id="Ellipse_1_copy_17" data-name="Ellipse 1 copy 17" class="cls-2" d="M10.757,23.181a2.378,2.378,0,0,1,.126-2.372c0.424-.65,7.475-18.5,7.475-18.5A3.309,3.309,0,0,1,21.582-.062h6.333A1.719,1.719,0,0,1,29.5,2.313S18.355,30.976,18.245,31.222a1.98,1.98,0,0,1-3.638-.052S11.15,23.951,10.757,23.181Z"/>
  <path id="Ellipse_1_copy_18" data-name="Ellipse 1 copy 18" class="cls-1" d="M25.007,23.181a2.378,2.378,0,0,1,.126-2.372c0.424-.65,6.683-18.5,6.683-18.5A3.309,3.309,0,0,1,35.04-.062h6.333a1.719,1.719,0,0,1,1.583,2.375S31.812,30.976,31.7,31.222a1.98,1.98,0,0,1-3.638-.052S25.4,23.951,25.007,23.181Z"/>
  <path id="Ellipse_1_copy_19" data-name="Ellipse 1 copy 19" class="cls-3" d="M14.062-.062a1.98,1.98,0,0,1,1.833,2.728L10.367,15.3a1.98,1.98,0,0,1-3.716-.064C6.6,15.077,1.117,2.312,1.117,2.312A1.85,1.85,0,0,1,1,1.661,1.657,1.657,0,0,1,2.583-.062H14.062Z"/>
  <path id="WrapPixel" class="cls-4" d="M82.927,19.633L78.977,7.381H75.4l-3.926,12.2-3.251-12.2H64.574L69.5,25.109h3.6l4.051-12.627L81.2,25.109h3.551l4.9-17.728H86.128Zm13.914-6.876a7.573,7.573,0,0,0-.775-0.05,3.659,3.659,0,0,0-3.5,1.925V12.807H89.34v12.3h3.326V19.483c0-2.65,1.475-3.476,3.175-3.476a5.008,5.008,0,0,1,1,.1V12.757Zm0.79,9c0,1.925,1.6,3.7,4.226,3.7a4.11,4.11,0,0,0,3.625-1.825,8.334,8.334,0,0,0,.125,1.475h3.051a13.78,13.78,0,0,1-.15-1.95V17.107c0-2.475-1.451-4.676-5.351-4.676-3.3,0-5.076,2.125-5.276,4.051l2.95,0.625a2.184,2.184,0,0,1,2.351-2c1.4,0,2.075.725,2.075,1.6a0.873,0.873,0,0,1-.925.875l-3.025.45C99.256,18.332,97.631,19.558,97.631,21.758Zm4.926,1.225a1.444,1.444,0,0,1-1.6-1.425,1.554,1.554,0,0,1,1.526-1.55l2.775-.425v0.55C105.257,22.308,103.957,22.983,102.557,22.983Zm11.357,6.876V23.908a4.324,4.324,0,0,0,3.551,1.5c3.475,0,5.8-2.75,5.8-6.476,0-3.651-2.076-6.4-5.676-6.4a4.3,4.3,0,0,0-3.776,1.775v-1.5h-3.225V29.859h3.325Zm6.076-10.9c0,2.2-1.35,3.476-3.05,3.476s-3.076-1.3-3.076-3.476,1.375-3.45,3.076-3.45S119.99,16.782,119.99,18.958Zm8.115-3.5V10.381h2.726a2.469,2.469,0,0,1,2.775,2.55,2.476,2.476,0,0,1-2.775,2.525H128.1Zm3.151,2.976c3.5,0,5.826-2.3,5.826-5.526,0-3.2-2.326-5.526-5.826-5.526H124.63V25.109h3.45V18.433h3.176Zm10.24,6.676v-12.3h-3.325v12.3H141.5ZM137.771,8.781a2.05,2.05,0,1,0,2.05-2.075A2.054,2.054,0,0,0,137.771,8.781Zm4.8,16.328h3.751c0.425-.675,2.075-3.1,2.525-3.776l2.575,3.776h3.9l-4.451-6.276,4.3-6.026H151.4l-2.425,3.651c-0.425-.675-2.025-2.976-2.45-3.651H142.57l4.376,6.126Zm15.317-7.551a2.662,2.662,0,0,1,2.75-2.425,2.475,2.475,0,0,1,2.751,2.425h-5.5Zm5.826,3.2a2.717,2.717,0,0,1-2.8,1.875,3,3,0,0,1-3.1-2.8h8.8c0-.05.05-0.55,0.05-1.025,0-3.951-2.275-6.376-6.076-6.376a6.177,6.177,0,0,0-6.051,6.476,6.232,6.232,0,0,0,6.351,6.576,5.54,5.54,0,0,0,5.6-3.9Zm7.281,4.351V7.006h-3.325v18.1h3.325Z"/>
</svg>
