<?xml version="1.0" encoding="UTF-8"?><svg id="Layer_2" xmlns="http://www.w3.org/2000/svg" xmlns:xlink="http://www.w3.org/1999/xlink" viewBox="0 0 388.98 115.32"><defs><style>.cls-1{fill:url(#linear-gradient);}.cls-2{fill:#00a099;}.cls-3{fill:#191932;}.cls-4{fill:url(#linear-gradient-2);}</style><linearGradient id="linear-gradient" x1="39.9" y1="40.07" x2="76.57" y2="9.29" gradientUnits="userSpaceOnUse"><stop offset="0" stop-color="#7e28b2"/><stop offset=".28" stop-color="#a7199f"/><stop offset=".6" stop-color="#ce0c8e"/><stop offset=".85" stop-color="#e70483"/><stop offset="1" stop-color="#f00180"/></linearGradient><linearGradient id="linear-gradient-2" x1="88.49" y1="85.77" x2="7.18" y2="38.83" gradientUnits="userSpaceOnUse"><stop offset="0" stop-color="#9f37f4"/><stop offset=".6" stop-color="#28a4d3"/><stop offset="1" stop-color="#18d0cc"/></linearGradient></defs><g id="Layer_1-2"><g><path class="cls-3" d="M112.32,87.22c-.83,0-1.24-.41-1.24-1.24V29.42c0-.83,.41-1.24,1.24-1.24h9.36c.83,0,1.24,.41,1.24,1.24v26.12l19.78-26.68c.39-.44,.88-.66,1.49-.66h11.35c.5,0,.81,.15,.95,.45,.14,.3,.04,.65-.29,1.03l-19.78,24.86,21.84,31.23c.28,.44,.34,.8,.21,1.07-.14,.28-.46,.41-.95,.41h-10.85c-.66,0-1.16-.25-1.49-.74l-15.96-22.72-6.29,7.85v14.33c0,.83-.41,1.24-1.24,1.24h-9.36Z"/><path class="cls-3" d="M177.83,88.2c-5.69,0-10.33-2.01-13.92-6.03-3.59-4.02-5.38-9.09-5.38-15.21s1.81-11.12,5.43-15.17c3.62-4.05,8.24-6.07,13.87-6.07,5.96,0,10.38,2.23,13.25,6.69l.17-4.46c0-.83,.41-1.24,1.24-1.24h8.12c.83,0,1.24,.41,1.24,1.24v38.02c0,.83-.44,1.24-1.33,1.24h-8.03c-.83,0-1.24-.41-1.24-1.24l-.17-4.46c-3.04,4.46-7.45,6.69-13.25,6.69Zm-5.14-13.39c1.99,1.98,4.5,2.98,7.54,2.98s5.51-.99,7.41-2.98c1.9-1.98,2.86-4.6,2.86-7.85s-.95-5.87-2.86-7.85c-1.9-1.98-4.38-2.98-7.41-2.98s-5.55,1.01-7.54,3.02c-1.99,2.01-2.98,4.62-2.98,7.81s.99,5.87,2.98,7.85Z"/><path class="cls-3" d="M209.98,87.2c-.83,0-1.24-.41-1.24-1.24V29.35c0-.83,.41-1.24,1.24-1.24h9.03c.83,0,1.24,.41,1.24,1.24v56.62c0,.83-.41,1.24-1.24,1.24h-9.03Z"/><path class="cls-3" d="M228.57,87.2c-.83,0-1.24-.41-1.24-1.24V29.35c0-.83,.41-1.24,1.24-1.24h9.03c.83,0,1.24,.41,1.24,1.24v56.62c0,.83-.41,1.24-1.24,1.24h-9.03Z"/><path class="cls-3" d="M255.9,39.05c-1.19,1.22-2.69,1.82-4.51,1.82s-3.34-.62-4.56-1.86c-1.22-1.24-1.82-2.75-1.82-4.51s.61-3.26,1.82-4.47c1.21-1.21,2.73-1.82,4.56-1.82s3.33,.61,4.51,1.82c1.19,1.21,1.78,2.71,1.78,4.47s-.59,3.34-1.78,4.56Z"/><path class="cls-3" d="M246.83,46.71h9.03c.68,0,1.24,.56,1.24,1.24v38.02c0,.69-.56,1.24-1.24,1.24h-9.03c-.68,0-1.24-.56-1.24-1.24V47.95c0-.69,.56-1.24,1.24-1.24Z"/><path class="cls-3" d="M282.73,88.2c-5.69,0-10.33-2.01-13.92-6.03-3.59-4.02-5.38-9.09-5.38-15.21s1.81-11.12,5.43-15.17c3.62-4.05,8.24-6.07,13.87-6.07s9.64,1.9,12.51,5.7V29.35c0-.83,.41-1.24,1.24-1.24h9.03c.83,0,1.24,.41,1.24,1.24v56.62c0,.83-.44,1.24-1.32,1.24h-8.03c-.83,0-1.24-.41-1.24-1.24l-.17-4.46c-3.04,4.46-7.45,6.69-13.25,6.69Zm-5.14-13.39c1.99,1.98,4.5,2.98,7.54,2.98s5.51-.99,7.41-2.98c1.91-1.98,2.86-4.6,2.86-7.85s-.95-5.87-2.86-7.85c-1.9-1.98-4.38-2.98-7.41-2.98s-5.55,1.01-7.54,3.02c-1.99,2.01-2.98,4.62-2.98,7.81s.99,5.87,2.98,7.85Z"/><path class="cls-3" d="M328.54,88.2c-4.36,0-7.9-1.49-10.6-4.46-2.71-2.98-4.06-7.05-4.06-12.23v-23.56c0-.83,.41-1.24,1.24-1.24h8.95c.83,0,1.24,.41,1.24,1.24v20.99c0,5.84,2.51,8.76,7.54,8.76,2.43,0,4.36-.76,5.8-2.27,1.43-1.51,2.15-3.68,2.15-6.49v-20.99c0-.83,.41-1.24,1.24-1.24h8.86c.88,0,1.33,.41,1.33,1.24v38.02c0,.83-.44,1.24-1.33,1.24h-8.53c-.83,0-1.24-.44-1.24-1.32l-.33-4.79c-2.65,4.74-6.74,7.11-12.26,7.11Z"/><path class="cls-3" d="M373.74,88.2c-6.29,0-11.35-2.23-15.16-6.69-.5-.61-.44-1.41,.17-2.4l2.9-4.05c.55-.83,1.24-.94,2.07-.33,3.48,2.64,6.6,3.97,9.36,3.97,3.04,0,4.56-1.13,4.56-3.39,0-.94-.32-1.71-.95-2.31-.63-.61-1.73-1.24-3.27-1.9l-5.14-2.07c-5.91-2.31-8.86-6.01-8.86-11.08,0-3.75,1.38-6.72,4.14-8.93,2.76-2.2,6.1-3.31,10.02-3.31,5.58,0,10.11,2.07,13.58,6.2,.44,.55,.41,1.13-.08,1.74l-3.64,4.38c-.5,.61-1.13,.61-1.9,0-2.71-2.26-5.16-3.39-7.37-3.39-1.27,0-2.24,.3-2.9,.91-.66,.61-.99,1.38-.99,2.31,0,1.71,1.3,3.03,3.89,3.97l5.72,2.23c6.13,2.48,9.17,6.39,9.11,11.74-.06,3.91-1.53,6.96-4.43,9.13-2.9,2.18-6.5,3.26-10.81,3.26Z"/></g><g><path class="cls-2" d="M.51,62.6c-.1-.46-.17-.92-.24-1.38,.07,.46,.14,.92,.24,1.38Z"/><path class="cls-2" d="M.3,53.91c.09-.59,.21-1.18,.35-1.76-.14,.58-.26,1.17-.35,1.76Z"/><path class="cls-2" d="M1.37,49.7c.22-.62,.47-1.24,.74-1.85-.27,.61-.52,1.22-.74,1.85Z"/><path class="cls-2" d="M.74,51.79c.16-.61,.33-1.22,.54-1.82-.2,.6-.38,1.2-.54,1.82Z"/><path class="cls-2" d="M.16,60.43c-.06-.5-.09-.99-.12-1.49,.03,.5,.06,.99,.12,1.49Z"/><path class="cls-2" d="M.05,56.07c.04-.56,.1-1.13,.18-1.69-.08,.56-.14,1.12-.18,1.69Z"/><path class="cls-2" d="M0,58.25c-.01-.53,0-1.06,.02-1.6-.02,.53-.03,1.06-.02,1.6Z"/><path class="cls-2" d="M2.8,68.91c-.18-.33-.32-.67-.48-1,.16,.34,.31,.67,.48,1Z"/><path class="cls-2" d="M1.06,64.75c-.13-.42-.23-.84-.34-1.26,.11,.42,.21,.84,.34,1.26Z"/><path class="cls-2" d="M1.82,66.86c-.16-.37-.29-.75-.42-1.13,.14,.38,.26,.76,.42,1.13Z"/><path class="cls-2" d="M4.41,43.84c.43-.61,.9-1.2,1.4-1.78-.5,.58-.96,1.17-1.4,1.78Z"/><path class="cls-2" d="M3.98,70.89c-.19-.28-.35-.57-.52-.86,.17,.29,.33,.58,.52,.86Z"/><path class="cls-1" d="M39.75,39.87c.33,.3,.68,.58,1,.9l16.89,16.89,16.89-16.89c9.33-9.33,9.33-24.45,0-33.78h0c-9.33-9.33-24.45-9.33-33.78,0l-.1,.1c-9.01,9.01-9.29,23.4-.9,32.78Z"/><path class="cls-2" d="M5.37,72.77c-.17-.21-.32-.43-.48-.65,.16,.22,.31,.44,.48,.65Z"/><path class="cls-2" d="M2.19,47.68c.29-.63,.6-1.25,.95-1.85-.35,.61-.66,1.22-.95,1.85Z"/><path class="cls-2" d="M3.2,45.72c.36-.62,.75-1.23,1.17-1.83-.42,.6-.81,1.2-1.17,1.83Z"/><path class="cls-2" d="M.73,63.49c-.07-.3-.15-.59-.22-.89,.06,.3,.14,.6,.22,.89Z"/><path class="cls-2" d="M2.31,67.91c-.17-.35-.34-.69-.49-1.05,.15,.35,.32,.7,.49,1.05Z"/><path class="cls-2" d="M4.88,72.12c-.31-.41-.63-.81-.91-1.24,.28,.42,.6,.83,.91,1.24Z"/><path class="cls-2" d="M1.4,65.73c-.12-.32-.24-.65-.34-.98,.1,.33,.23,.65,.34,.98Z"/><path class="cls-2" d="M3.46,70.03c-.23-.37-.46-.74-.66-1.12,.2,.38,.44,.75,.66,1.12Z"/><path class="cls-2" d="M4.38,43.89s.03-.03,.04-.05c-.01,.02-.03,.03-.04,.05Z"/><path class="cls-2" d="M3.14,45.83s.04-.07,.06-.11c-.02,.04-.04,.07-.06,.11Z"/><path class="cls-2" d="M2.11,47.86c.03-.06,.06-.12,.08-.18-.03,.06-.06,.12-.08,.18Z"/><path class="cls-2" d="M40.65,7.09s0,0,0,0L5.75,42l.06,.06s0,0,0,0c.38-.44,.75-.87,1.16-1.29L40.65,7.09Z"/><path class="cls-2" d="M1.27,49.97c.03-.09,.06-.18,.09-.27-.03,.09-.06,.18-.09,.27Z"/><path class="cls-2" d="M.65,52.15c.03-.12,.06-.24,.09-.36-.03,.12-.06,.24-.09,.36Z"/><path class="cls-2" d="M.04,58.94c-.01-.23-.03-.46-.03-.69,0,.23,.02,.46,.03,.69Z"/><path class="cls-2" d="M.03,56.65c0-.19,.01-.39,.03-.58-.01,.19-.02,.39-.03,.58Z"/><path class="cls-2" d="M.27,61.22c-.04-.27-.08-.53-.11-.8,.03,.27,.08,.53,.11,.8Z"/><path class="cls-2" d="M.23,54.38c.02-.16,.04-.31,.07-.47-.03,.16-.05,.31-.07,.47Z"/><path class="cls-4" d="M74.53,74.55l-16.89-16.89-16.89-16.89c-.32-.32-.66-.6-1-.9-8.39-9.38-8.11-23.77,.9-32.78L6.97,40.77c-.41,.41-.79,.85-1.16,1.29-.5,.58-.96,1.17-1.4,1.78-.01,.02-.03,.03-.04,.05-.42,.59-.81,1.21-1.17,1.83-.02,.04-.04,.07-.06,.11-.35,.61-.66,1.22-.95,1.85-.03,.06-.06,.12-.08,.18-.27,.61-.52,1.22-.74,1.85-.03,.09-.06,.18-.09,.27-.2,.6-.38,1.21-.54,1.82-.03,.12-.06,.24-.09,.36-.14,.58-.25,1.17-.35,1.76-.02,.16-.05,.31-.07,.47-.08,.56-.14,1.12-.18,1.69-.01,.19-.02,.39-.03,.58-.02,.53-.03,1.06-.02,1.6,0,.23,.02,.46,.03,.69,.03,.5,.06,1,.12,1.49,.03,.27,.07,.53,.11,.8,.07,.46,.14,.92,.24,1.38,.06,.3,.14,.6,.22,.89,.11,.42,.21,.84,.34,1.26,.1,.33,.22,.65,.34,.98,.14,.38,.27,.76,.42,1.13,.15,.35,.32,.7,.49,1.05,.16,.34,.31,.67,.48,1,.2,.38,.44,.75,.66,1.12,.17,.29,.33,.58,.52,.86,.28,.42,.6,.83,.91,1.24,.16,.21,.31,.44,.48,.65,.5,.61,1.03,1.2,1.6,1.78l33.78,33.78c9.33,9.33,24.45,9.33,33.78,0h0c9.33-9.33,9.33-24.45,0-33.78Z"/></g></g></svg>