<?xml version="1.0" encoding="UTF-8"?>
<svg xmlns="http://www.w3.org/2000/svg" id="a" viewBox="0 0 134.82 40">
  <path d="m54.6,25.79c0,2.62-2.12,4.74-4.74,4.74s-4.74-2.12-4.74-4.74V0h-9.46v25.79c0,2.34.57,4.54,1.56,6.49l-22.12-13.51L33.89,0h-13.4l-11.01,11.02V0H0v40h9.47v-13.58l22.22,13.58h18.18c7.85,0,14.2-6.36,14.2-14.2V0h-9.47v25.79h0Zm-4.74,10.62c-.63-.02-1.13-.56-1.1-1.19.02-.6.5-1.09,1.1-1.1.63.02,1.13.56,1.1,1.19-.02.6-.5,1.08-1.1,1.1ZM114.82,0c-7.93,0-14.78,4.61-18.01,11.3-3.24-6.69-10.08-11.3-18.02-11.3h-11.68v40h11.68c7.93,0,14.78-4.61,18.01-11.3,3.24,6.69,10.09,11.3,18.01,11.3,11.05,0,20-8.95,20-20S125.87,0,114.82,0Zm-36.02,30.52h-2.2V9.48h2.2c5.82,0,10.52,4.71,10.52,10.52s-4.7,10.52-10.52,10.52Zm28.58-25.66c.63.02,1.13.56,1.1,1.19-.02.6-.5,1.09-1.1,1.1-.63-.02-1.13-.56-1.1-1.19.02-.6.5-1.09,1.1-1.1Zm7.44,26.29c-6.15,0-11.14-4.98-11.14-11.14s4.98-11.14,11.14-11.14,11.14,4.98,11.14,11.14-4.98,11.14-11.14,11.14Z" fill="#231f20"></path>
  <path d="m131.87,39.06c-.36,0-.7-.1-1-.27-.3-.18-.54-.42-.73-.73-.18-.3-.26-.64-.26-1s.09-.69.26-1c.18-.3.42-.55.73-.73.3-.18.64-.27,1-.27s.7.1,1,.27c.3.18.54.42.73.73.18.31.26.64.26,1s-.09.7-.26,1c-.18.31-.42.55-.73.73-.3.18-.64.27-1,.27Zm-1.13-3.14c-.31.31-.46.7-.46,1.14s.15.83.46,1.14c.31.32.68.47,1.13.47s.82-.15,1.14-.47c.3-.31.46-.7.46-1.14s-.15-.83-.46-1.14c-.31-.32-.69-.47-1.14-.47s-.82.15-1.13.47Zm.82,1.46v.82h-.46v-2.29h.85c.26,0,.46.06.6.21.13.14.19.32.19.52,0,.28-.13.52-.39.64l.47.92h-.51l-.42-.82h-.33Zm.34-1.03h-.34v.61h.34c.26,0,.37-.14.37-.3,0-.2-.12-.3-.37-.3Z" fill="#231f20"></path>
</svg>
