<svg width="138" height="25" viewBox="0 0 138 25" fill="none" xmlns="http://www.w3.org/2000/svg">
<g clip-path="url(#clip0_3333_1089)">
<path d="M42.8105 8.23534C43.7537 7.26918 44.6509 6.30302 45.617 5.35986C45.617 10.1217 45.617 14.9065 45.617 19.6452H42.8105C42.8105 15.8496 42.8105 12.031 42.8105 8.23534ZM92.5218 8.23534C93.465 7.26918 94.3851 6.30302 95.3283 5.35986C95.3513 10.1217 95.3513 14.9065 95.3283 19.6452H92.5218C92.5218 15.8496 92.5448 12.031 92.5218 8.23534ZM67.7927 6.37203C68.8969 5.75093 70.2311 5.65891 71.4733 5.79694C72.7845 5.95796 73.9347 6.64808 74.8779 7.52222C74.2798 8.16633 73.6357 8.76443 73.0606 9.40854C72.2555 8.78743 71.3123 8.12032 70.2311 8.21234C69.587 8.23534 68.8739 8.5574 68.7129 9.22451C68.5288 9.75359 68.8279 10.3057 69.311 10.5587C70.5072 11.2258 71.9104 11.4099 73.1296 12.054C74.3028 12.5831 75.269 13.7103 75.315 15.0675C75.43 16.2177 75.0619 17.3449 74.2798 18.196C73.2906 19.3462 71.7264 19.8523 70.2311 19.7603C69.0579 19.7373 67.8387 19.4382 66.8956 18.6791C66.3895 18.288 65.9754 17.8049 65.5383 17.3449C66.0214 16.7238 66.5965 16.2177 67.1026 15.6426L67.3096 15.5966C68.1378 16.3557 69.1729 17.0228 70.3461 17.1148C71.1973 17.1838 72.1404 16.7008 72.3245 15.8266C72.5775 15.2055 72.0944 14.5844 71.5653 14.3544C70.0471 13.5952 68.2068 13.4802 66.8496 12.376C65.7224 11.4329 65.4693 9.7766 65.9524 8.46538C66.2745 7.54523 66.9876 6.85511 67.7927 6.37203ZM49.9877 7.3842C49.9877 6.90112 49.9187 6.39504 50.0568 5.91196C51.0919 5.93496 52.0811 5.91196 53.1163 5.93496C54.9566 8.87945 56.8659 11.7779 58.6832 14.7224C58.6602 11.8009 58.6832 8.87945 58.6602 5.93496C59.6033 5.91196 60.5235 5.93496 61.4667 5.93496V19.5762C60.4775 19.5992 59.5343 19.5762 58.5452 19.5992C56.8889 16.9538 55.1866 14.3314 53.5303 11.6859C53.2773 11.3409 53.0472 10.9728 52.8862 10.5587C52.7252 11.0188 52.7712 11.5249 52.7712 11.985V19.5532C51.828 19.5072 50.8619 19.6682 49.9417 19.4612C50.0107 15.4585 49.9647 11.4099 49.9877 7.3842ZM79.3176 5.91196H84.1944C85.8047 5.93496 87.277 6.71709 88.1971 8.02831C89.3933 9.7766 89.3473 12.1 88.0591 13.8023C87.461 14.5614 86.6559 15.1365 85.7357 15.4585C84.5625 15.8726 83.3203 15.7116 82.1011 15.7346V19.5762C81.1579 19.5532 80.2378 19.5762 79.2946 19.5762C79.2946 15.0445 79.2946 10.4667 79.3176 5.91196ZM82.1011 8.51139V13.1582C83.1823 13.0892 84.4245 13.4112 85.3676 12.6751C86.5638 11.8009 86.5408 9.82261 85.3446 8.97147C84.4015 8.28135 83.1823 8.6034 82.1011 8.51139ZM99.9981 5.93496H104.369C105.772 5.93496 107.267 6.39504 108.233 7.43021C109.108 8.37337 109.545 9.63858 109.43 10.9498C109.43 12.422 108.671 13.9633 107.221 14.4924C108.233 16.1947 109.269 17.8739 110.258 19.5992H107.152C106.025 17.7129 104.829 15.8726 103.702 14.0323C103.426 13.6642 103.288 13.2042 102.897 12.9281C103.058 12.8361 103.219 12.6751 103.449 12.7441C104.277 12.7671 105.174 12.7441 105.864 12.215C106.807 11.5019 106.945 9.93763 106.117 9.10949C105.174 8.39637 103.932 8.6034 102.828 8.5804V19.6222H100.021C99.9981 15.0445 99.9981 10.4667 99.9981 5.93496ZM114.283 5.93496C117.044 5.91196 119.781 5.93496 122.542 5.91196C122.565 6.80911 122.542 7.68325 122.542 8.5804C120.725 8.5804 118.907 8.6034 117.09 8.5804V11.4099C118.907 11.4099 120.725 11.3869 122.542 11.4099V14.0553C120.725 14.0323 118.907 14.0553 117.09 14.0553V16.8848C118.907 16.8848 120.725 16.9078 122.542 16.8848C122.565 17.7819 122.565 18.6791 122.542 19.5762C119.781 19.5532 117.044 19.5762 114.283 19.5762V5.93496ZM127.143 6.04998C129.213 6.11899 131.375 5.81994 133.423 6.39504C134.987 6.83211 136.321 7.86728 137.126 9.27051C138.299 11.3869 138.322 14.1473 137.057 16.2637C135.884 18.242 133.63 19.4152 131.329 19.4842C129.926 19.5072 128.523 19.5072 127.097 19.4842C127.143 14.9985 127.143 10.5127 127.143 6.04998ZM129.742 17.1378C131.076 17.1608 132.502 17.0458 133.63 16.2407C135.7 14.8604 135.999 11.6399 134.366 9.7996C133.216 8.51139 131.352 8.32736 129.719 8.37337C129.742 11.3179 129.719 14.2163 129.742 17.1378Z" fill="black"/>
<path d="M18.541 0.644107L19.8522 0L26.8914 25.0052L18.541 0.644107Z" fill="url(#paint0_linear_3333_1089)"/>
<path d="M1.51825 9.50049L0 10.3516L26.9145 25.0051L1.51825 9.50049Z" fill="url(#paint1_linear_3333_1089)"/>
<path d="M26.8908 25.0051L18.5404 0.644043L1.51758 9.50052L26.8908 25.0051Z" fill="url(#paint2_linear_3333_1089)"/>
<path d="M26.8906 25.0052L36.8513 16.4018L35.6551 16.2178L26.8906 25.0052Z" fill="url(#paint3_linear_3333_1089)"/>
<path d="M23.9238 14.4463L26.8913 25.005L35.6558 16.2176L23.9238 14.4463Z" fill="url(#paint4_linear_3333_1089)"/>
</g>
<defs>
<linearGradient id="paint0_linear_3333_1089" x1="18.541" y1="12.4911" x2="26.8914" y2="12.4911" gradientUnits="userSpaceOnUse">
<stop stop-color="#5C5B5B"/>
<stop offset="1" stop-color="#DCDCDC"/>
</linearGradient>
<linearGradient id="paint1_linear_3333_1089" x1="0" y1="17.2528" x2="26.9145" y2="17.2528" gradientUnits="userSpaceOnUse">
<stop stop-color="#7F7E7E"/>
<stop offset="1" stop-color="#DCDCDC"/>
</linearGradient>
<linearGradient id="paint2_linear_3333_1089" x1="9.01683" y1="4.34766" x2="30.5254" y2="19.7372" gradientUnits="userSpaceOnUse">
<stop stop-color="#5C5B5B"/>
<stop offset="1" stop-color="#DCDCDC"/>
</linearGradient>
<linearGradient id="paint3_linear_3333_1089" x1="26.8906" y1="20.6115" x2="36.8513" y2="20.6115" gradientUnits="userSpaceOnUse">
<stop stop-color="#5C5B5B"/>
<stop offset="1" stop-color="#DCDCDC"/>
</linearGradient>
<linearGradient id="paint4_linear_3333_1089" x1="25.189" y1="19.7832" x2="37.6571" y2="15.8725" gradientUnits="userSpaceOnUse">
<stop stop-color="#5C5B5B"/>
<stop offset="0.9" stop-color="#DCDCDC"/>
</linearGradient>
<clipPath id="clip0_3333_1089">
<rect width="138" height="25.0052" fill="white"/>
</clipPath>
</defs>
</svg>
