<svg width="139" height="33" viewBox="0 0 139 33" fill="none" xmlns="http://www.w3.org/2000/svg">
<path d="M43.6054 8.81214H41.7481V23.273H51.0073V21.4743H43.6054V8.81214ZM121.811 14.0353L118.137 18.2209L121.841 22.4407L120.602 23.5051L120.572 23.471L117.05 19.4583L113.496 23.5052L112.26 22.4407L112.29 22.4047L115.963 18.2209L112.26 14.0002L113.496 12.9349L113.528 12.9691L117.05 16.9817L120.602 12.9348L121.841 14.0002L121.811 14.0353ZM97.5701 19.2077L87.6116 8.81214H87.2437V23.273H89.1009V12.8775L99.0595 23.273H99.4265V8.81214H97.5701V19.2077ZM123.7 13.1679H125.455V23.273H123.7V13.1679ZM123.616 10.4388H125.536V8.81121H123.616V10.4388ZM111.709 18.6445C111.668 15.0471 109.587 13.006 106.729 13.006C103.873 13.006 101.607 15.2893 101.607 18.2209C101.607 21.1303 103.832 23.4349 106.853 23.4349C108.628 23.4349 110.077 22.7071 110.955 21.798L110.945 21.7878L109.696 20.7123C109.04 21.3051 108.053 21.798 106.853 21.798C104.995 21.798 103.587 20.4441 103.423 18.6444L111.709 18.6445ZM109.73 17.1287H103.506C103.873 15.5927 105.137 14.6032 106.627 14.6032C108.179 14.5819 109.484 15.4706 109.73 17.1287ZM131.913 17.5125L131.044 17.2092C129.813 16.7847 129.494 16.3001 129.494 15.6741C129.494 14.9666 130.196 14.5625 131.001 14.5625C131.746 14.5625 132.271 14.863 132.722 15.3504L133.91 14.3266C133.167 13.4435 132.173 13.006 131.001 13.006C129.071 13.006 127.691 14.1778 127.691 15.6944C127.691 16.9068 128.35 18.0184 130.216 18.6852L131.044 18.9885C132.294 19.412 132.847 19.8365 132.847 20.605C132.847 21.3735 131.998 21.8784 130.959 21.8784C129.838 21.8784 129.12 21.3652 128.455 20.605L127.202 21.6842C128.118 22.7866 129.423 23.4349 130.917 23.4349C133.229 23.4349 134.671 22.1614 134.671 20.544C134.671 19.0486 133.716 18.1395 131.913 17.5125ZM71.9599 14.0002L70.7227 12.9348L67.1697 16.9817L63.6476 12.9691L63.6168 12.9349L62.3777 14.0002L66.0828 18.2209L62.4094 22.4047L62.3777 22.4407L63.6168 23.5052L67.1698 19.4583L70.691 23.471L70.7227 23.5051L71.9599 22.4407L68.2566 18.2209L71.93 14.0353L71.9599 14.0002ZM73.8181 13.1679H75.5736V23.273H73.8181V13.1679ZM73.7369 10.4388H75.6576V8.81121H73.7369V10.4388ZM61.8286 18.6445C61.7875 15.0471 59.7071 13.006 56.8489 13.006C53.9916 13.006 51.7272 15.2893 51.7272 18.2209C51.7272 21.1303 53.9514 23.4349 56.9712 23.4349C58.7472 23.4349 60.1964 22.7071 61.0741 21.798L61.0648 21.7878L59.8155 20.7123C59.1581 21.3051 58.172 21.798 56.9712 21.798C55.1149 21.798 53.7068 20.4441 53.5434 18.6444L61.8286 18.6445ZM59.8491 17.1287H53.6246C53.9916 15.5927 55.2578 14.6032 56.7471 14.6032C58.2981 14.5819 59.6044 15.4706 59.8491 17.1287ZM82.0324 17.5125L81.1631 17.2092C79.9324 16.7847 79.6139 16.3001 79.6139 15.6741C79.6139 14.9666 80.3152 14.5625 81.121 14.5625C81.8652 14.5625 82.3919 14.863 82.841 15.3504L84.0297 14.3266C83.2864 13.4435 82.2938 13.006 81.121 13.006C79.19 13.006 77.8109 14.1778 77.8109 15.6944C77.8109 16.9068 78.4692 18.0184 80.3348 18.6852L81.1631 18.9885C82.4143 19.412 82.9661 19.8365 82.9661 20.605C82.9661 21.3735 82.1174 21.8784 81.0781 21.8784C79.9576 21.8784 79.2395 21.3652 78.5747 20.605L77.3216 21.6842C78.2376 22.7866 79.542 23.4349 81.0361 23.4349C83.348 23.4349 84.7907 22.1614 84.7907 20.544C84.7907 19.0486 83.8355 18.1395 82.0324 17.5125ZM137.476 11.7872C137.476 11.0298 136.883 10.437 136.124 10.437C135.375 10.437 134.766 11.0418 134.766 11.7872C134.766 12.5446 135.363 13.1383 136.124 13.1383C136.883 13.1383 137.476 12.5446 137.476 11.7872ZM137.251 11.7872C137.251 12.4216 136.757 12.921 136.124 12.921C135.493 12.921 134.997 12.4216 134.997 11.7872C134.997 11.162 135.502 10.6525 136.124 10.6525C136.747 10.6525 137.251 11.162 137.251 11.7872ZM136.384 11.8538L136.751 12.5233H136.478L136.127 11.8908H135.86V12.5233H135.607V11.0067H136.147C136.495 11.0067 136.695 11.1648 136.695 11.4395C136.695 11.6623 136.59 11.802 136.384 11.8538ZM136.13 11.2342H135.86V11.6725H136.135C136.354 11.6725 136.445 11.6041 136.445 11.445C136.445 11.2998 136.348 11.2342 136.13 11.2342ZM34.2771 7.46103C34.2771 6.70363 33.6832 6.11084 32.925 6.11084C32.1762 6.11084 31.5664 6.71565 31.5664 7.46103C31.5664 8.21843 32.164 8.81214 32.925 8.81214C33.6832 8.81214 34.2771 8.21843 34.2771 7.46103ZM34.0521 7.46103C34.0521 8.09636 33.5572 8.59481 32.925 8.59481C32.2929 8.59481 31.798 8.09636 31.798 7.46103C31.798 6.83587 32.3031 6.32632 32.925 6.32632C33.5469 6.32632 34.0521 6.83587 34.0521 7.46103ZM33.1846 7.52852L33.5516 8.19714H33.2789L32.9278 7.56458H32.6608V8.19714H32.4077V6.68049H32.9474C33.2957 6.68049 33.4956 6.83862 33.4956 7.11329C33.4956 7.33616 33.391 7.4758 33.1846 7.52852ZM32.9306 6.90798H32.6608V7.34726H32.9362C33.1547 7.34726 33.2462 7.2788 33.2462 7.11883C33.2462 6.97365 33.1491 6.90798 32.9306 6.90798Z" fill="black"/>
<path d="M6.68326 14.5788C8.30146 11.3836 10.9636 8.81549 14.101 7.32196C14.468 7.14902 14.8415 6.98904 15.2187 6.84384C15.2524 6.82997 15.2384 6.78093 15.2019 6.78745C4.03232 8.64905 -0.760662 22.3988 6.6982 28.2832C6.72713 28.3063 6.76452 28.2712 6.74302 28.2425C5.65986 26.7712 3.10414 21.6996 6.68326 14.5788ZM9.24926 23.7462C8.95605 21.9317 8.96072 20.0877 9.25136 18.3075C9.83589 14.7406 11.5755 11.4715 14.078 9.04854C14.543 8.59447 15.0369 8.17554 15.5496 7.78527C15.5776 7.76398 15.5517 7.72056 15.5187 7.73443C9.67993 10.3192 6.31093 16.7696 6.74232 22.6457C6.9795 25.3313 8.04586 30.2771 13.245 31.2536C13.2777 31.2592 13.2954 31.2167 13.2683 31.1981C11.1291 29.7425 9.62463 26.3365 9.24926 23.7462ZM2.03243 10.4986C4.64322 6.84664 10.0021 4.38208 15.2367 5.02296C15.274 5.02782 15.2843 4.97489 15.2488 4.9656C11.2533 3.80869 7.09711 4.58459 4.55729 6.61635C3.46759 7.4875 2.62161 8.9912 1.98011 10.469C1.9652 10.5032 2.01093 10.5282 2.03243 10.4986ZM31.5177 15.0569C30.8277 6.69867 23.2222 0.364808 14.7894 1.12776C11.8593 1.39224 8.72467 2.5917 6.38748 4.54947C6.35856 4.57353 6.38958 4.61792 6.422 4.5985C8.42118 3.46564 11.1758 3.49339 12.8005 3.68111C13.6568 3.78007 14.5027 3.95763 15.3217 4.20824C16.1406 4.46071 16.9352 4.78808 17.6915 5.18204C18.0837 5.3855 18.4656 5.60929 18.8354 5.84974C20.2145 5.24216 21.6693 4.83802 23.1344 4.63457H23.1393C23.243 4.6198 23.3494 4.67528 23.3849 4.77329C23.4306 4.90183 23.3504 5.03223 23.2243 5.05813C22.4362 5.22366 21.6602 5.44838 20.9067 5.72952C20.874 5.74249 20.8824 5.79146 20.9188 5.79146C21.987 5.79493 23.0496 5.9089 24.0833 6.12253L24.0882 6.12322C24.1807 6.14355 24.2544 6.21478 24.2656 6.30633C24.2824 6.458 24.1536 6.56805 24.0173 6.54955C23.1096 6.41361 22.189 6.35904 21.2701 6.38864C21.2346 6.38933 21.2281 6.44045 21.2626 6.45058C21.6922 6.58097 22.1142 6.72987 22.5298 6.8954C23.3104 7.21075 24.0611 7.59177 24.7745 8.02549L24.782 8.03173C24.8501 8.07245 24.895 8.14826 24.8857 8.22779C24.8651 8.39795 24.6914 8.47101 24.5626 8.40072C23.852 8.01231 23.1106 7.67939 22.3458 7.40936C22.0237 7.29838 21.6978 7.19665 21.3701 7.10787C21.3336 7.09865 21.3131 7.14581 21.3439 7.16523C21.8808 7.50093 22.3935 7.86807 22.8781 8.27127C23.5233 8.80672 24.1209 9.39582 24.6625 10.0293L24.6674 10.0348C24.7197 10.0968 24.7374 10.1828 24.7038 10.2549C24.6301 10.4103 24.4405 10.426 24.3406 10.3179C23.7943 9.72321 23.1967 9.17481 22.5571 8.68005C22.1789 8.38782 21.783 8.11871 21.375 7.86717C21.3433 7.84775 21.3087 7.88936 21.3349 7.9171C21.4516 8.03732 21.5655 8.16125 21.6775 8.28609C22.2359 8.91587 22.7364 9.59374 23.1688 10.3105C23.6011 11.0253 23.9662 11.7799 24.2594 12.5577L24.2622 12.5632C24.2893 12.6391 24.2771 12.7269 24.2202 12.7843C24.096 12.9063 23.9111 12.8564 23.8551 12.7177C23.5525 11.9723 23.1818 11.2528 22.7476 10.574C22.3134 9.8943 21.8157 9.25527 21.2648 8.66433C20.713 8.07524 20.107 7.53517 19.4571 7.05336C19.274 6.91648 18.9967 6.7269 18.8865 6.65662C6.19396 13.6665 10.5985 32.0716 19.7587 31.1154C27.0345 29.4055 32.145 22.6471 31.5184 15.0565M3.95753 12.7602C6.88487 8.16497 11.986 6.18685 15.1113 5.89C15.1468 5.88722 15.1468 5.83264 15.1113 5.83083C13.8199 5.71986 12.6247 5.80399 11.0597 6.12677C9.47698 6.48558 7.95308 7.10427 6.5898 7.97819C5.22278 8.84564 4.01729 9.96001 3.03965 11.2427C3.03033 11.2547 3.02095 11.2695 3.01072 11.2815C1.12547 13.7831 0.52039 16.9967 1.26926 20.0291C1.35424 20.3759 1.59235 21.0944 1.75388 21.5513C1.76509 21.5846 1.81642 21.5735 1.8118 21.5374C1.42335 17.9483 2.47659 15.0842 3.95753 12.7602Z" fill="black"/>
</svg>
