<svg width="148" height="49" viewBox="0 0 148 49" fill="none" xmlns="http://www.w3.org/2000/svg">
<path d="M22.0824 4.67609C22.3854 3.81988 23.5744 3.81989 23.8773 4.67609L28.866 18.7759H17.0938L22.0824 4.67609Z" fill="#151624"/>
<path d="M26.3794 29.1272L24.0596 37.2105C23.945 37.6098 24.0947 38.0386 24.4316 38.2763L35.845 46.327C36.5855 46.8494 37.5631 46.1389 37.3114 45.2614L32.6833 29.1274C32.5645 28.7133 32.1899 28.4285 31.7641 28.4285H27.2986C26.8728 28.4285 26.4982 28.7132 26.3794 29.1272Z" fill="#151624"/>
<path d="M43.4889 20.0046H1.61144C0.694035 20.0046 0.300104 21.1792 1.02903 21.7411L7.49899 26.7291C7.77774 26.944 8.11883 27.0604 8.46966 27.0604H14.2487C14.9099 27.0604 15.3728 27.7194 15.1537 28.3487L9.52764 44.5101C9.21773 45.4004 10.2251 46.166 10.9878 45.6199L22.4364 37.4223L25.3854 27.7437C25.5092 27.3376 25.8811 27.0604 26.3023 27.0604H36.9412C37.3051 27.0604 37.6581 26.9351 37.9419 26.7053L44.0894 21.7269C44.7958 21.1548 44.3948 20.0046 43.4889 20.0046Z" fill="#151624"/>
<path d="M143.371 32.7767C142.479 32.7767 141.688 32.628 140.999 32.3306C140.309 32.0332 139.762 31.6276 139.356 31.1139C138.951 30.5866 138.714 29.9918 138.646 29.3293H141.364C141.431 29.5727 141.546 29.8025 141.709 30.0188C141.884 30.2216 142.107 30.3838 142.378 30.5055C142.662 30.6272 142.979 30.688 143.331 30.688C143.696 30.688 143.993 30.6407 144.223 30.546C144.453 30.4379 144.622 30.3027 144.73 30.1405C144.852 29.9782 144.913 29.8092 144.913 29.6335C144.913 29.3496 144.825 29.14 144.649 29.0048C144.487 28.8561 144.243 28.7345 143.919 28.6398C143.608 28.5452 143.236 28.4438 142.804 28.3356C142.371 28.2275 141.925 28.1058 141.465 27.9706C141.019 27.8354 140.607 27.6664 140.228 27.4637C139.85 27.2473 139.546 26.977 139.316 26.6525C139.086 26.3145 138.971 25.9022 138.971 25.4155C138.971 24.8206 139.133 24.2866 139.458 23.8134C139.782 23.3268 140.249 22.9415 140.857 22.6575C141.479 22.3736 142.222 22.2317 143.088 22.2317C144.304 22.2317 145.271 22.5088 145.987 23.0631C146.717 23.6174 147.143 24.3813 147.265 25.3546H144.69C144.622 25.0302 144.446 24.7801 144.162 24.6043C143.892 24.4151 143.534 24.3204 143.088 24.3204C142.614 24.3204 142.249 24.4083 141.993 24.584C141.749 24.7598 141.627 24.9761 141.627 25.233C141.627 25.4222 141.715 25.5912 141.891 25.7399C142.067 25.8751 142.31 25.99 142.621 26.0847C142.932 26.1793 143.297 26.2807 143.716 26.3889C144.446 26.5646 145.102 26.7539 145.683 26.9567C146.278 27.1595 146.751 27.4501 147.103 27.8287C147.468 28.2072 147.65 28.748 147.65 29.451C147.664 30.0864 147.495 30.6542 147.143 31.1544C146.792 31.6546 146.298 32.0534 145.663 32.3509C145.028 32.6348 144.264 32.7767 143.371 32.7767Z" fill="#151624"/>
<path d="M132.246 32.5334V22.475H134.659L134.923 24.4421H134.943C135.2 23.9419 135.504 23.5295 135.856 23.2051C136.207 22.8806 136.613 22.6373 137.072 22.475C137.546 22.3128 138.059 22.2317 138.614 22.2317V25.1316H137.863C137.444 25.1316 137.052 25.1789 136.687 25.2735C136.336 25.3682 136.031 25.5236 135.775 25.7399C135.518 25.9563 135.322 26.2537 135.187 26.6322C135.051 26.9972 134.984 27.4569 134.984 28.0112V32.5334H132.246Z" fill="#151624"/>
<path d="M125.061 32.7767C124.222 32.7767 123.526 32.6415 122.972 32.3711C122.431 32.1008 122.026 31.7357 121.755 31.2761C121.485 30.8164 121.35 30.3095 121.35 29.7552C121.35 29.1333 121.512 28.5925 121.836 28.1329C122.161 27.6597 122.647 27.2879 123.296 27.0175C123.945 26.7471 124.756 26.6119 125.73 26.6119H128.265C128.265 26.1252 128.19 25.7264 128.042 25.4155C127.906 25.091 127.697 24.8477 127.413 24.6854C127.129 24.5232 126.757 24.4421 126.298 24.4421C125.784 24.4421 125.338 24.5638 124.959 24.8071C124.581 25.0369 124.351 25.3884 124.27 25.8616H121.613C121.681 25.1181 121.924 24.4759 122.343 23.9351C122.762 23.3943 123.317 22.9752 124.006 22.6778C124.696 22.3804 125.466 22.2317 126.318 22.2317C127.278 22.2317 128.109 22.3939 128.812 22.7184C129.515 23.0293 130.056 23.4957 130.435 24.1176C130.813 24.726 131.002 25.4696 131.002 26.3483V32.5334H128.711L128.407 30.9719H128.386C128.238 31.2423 128.048 31.4924 127.819 31.7222C127.602 31.9385 127.359 32.1278 127.089 32.29C126.818 32.4387 126.514 32.5537 126.176 32.6348C125.838 32.7294 125.466 32.7767 125.061 32.7767ZM125.77 30.6677C126.135 30.6677 126.453 30.6069 126.724 30.4852C127.007 30.35 127.251 30.1743 127.454 29.958C127.656 29.7416 127.812 29.4915 127.92 29.2076C128.042 28.9237 128.123 28.6195 128.163 28.2951H126.054C125.635 28.2951 125.29 28.3492 125.02 28.4573C124.75 28.552 124.554 28.6939 124.432 28.8832C124.31 29.0589 124.249 29.2685 124.249 29.5118C124.249 29.7552 124.31 29.9647 124.432 30.1405C124.567 30.3162 124.743 30.4514 124.959 30.546C125.189 30.6272 125.459 30.6677 125.77 30.6677Z" fill="#151624"/>
<path d="M118.855 32.5335C118.152 32.5335 117.53 32.4254 116.99 32.2091C116.449 31.9793 116.03 31.6075 115.732 31.0937C115.435 30.5665 115.286 29.85 115.286 28.9442V24.7464H113.562V22.4752H115.286L115.59 19.7375H118.024V22.4752H120.701V24.7464H118.024V28.9847C118.024 29.4444 118.125 29.7689 118.328 29.9581C118.531 30.1339 118.876 30.2218 119.362 30.2218H120.64V32.5335H118.855Z" fill="#151624"/>
<path d="M108.274 32.7767C107.247 32.7767 106.328 32.6009 105.516 32.2494C104.719 31.8979 104.09 31.3842 103.63 30.7082C103.171 30.0322 102.927 29.2143 102.9 28.2545H105.8C105.814 28.6736 105.922 29.0521 106.125 29.3901C106.328 29.7281 106.605 29.9985 106.956 30.2012C107.321 30.3905 107.761 30.4851 108.274 30.4851C108.693 30.4851 109.058 30.4175 109.369 30.2824C109.694 30.1472 109.944 29.9511 110.12 29.6943C110.309 29.4374 110.404 29.1265 110.404 28.7614C110.404 28.3423 110.302 27.9976 110.099 27.7272C109.897 27.4568 109.619 27.227 109.268 27.0377C108.916 26.8485 108.511 26.6795 108.051 26.5308C107.605 26.3685 107.132 26.2063 106.632 26.0441C105.523 25.6655 104.678 25.1788 104.097 24.584C103.516 23.9756 103.225 23.1645 103.225 22.1505C103.225 21.3123 103.428 20.589 103.833 19.9807C104.239 19.3723 104.807 18.9059 105.537 18.5814C106.267 18.257 107.098 18.0947 108.031 18.0947C108.991 18.0947 109.829 18.2637 110.546 18.6017C111.276 18.9262 111.85 19.3993 112.269 20.0212C112.702 20.6431 112.932 21.3732 112.959 22.2113H110.018C110.005 21.8869 109.91 21.5895 109.734 21.3191C109.572 21.0352 109.342 20.8121 109.045 20.6499C108.747 20.4741 108.396 20.3862 107.99 20.3862C107.639 20.3727 107.314 20.4268 107.017 20.5485C106.733 20.6701 106.503 20.8527 106.328 21.096C106.165 21.3258 106.084 21.6165 106.084 21.968C106.084 22.306 106.165 22.5899 106.328 22.8197C106.49 23.0495 106.72 23.2523 107.017 23.4281C107.314 23.5903 107.666 23.7458 108.072 23.8945C108.477 24.0297 108.916 24.1784 109.39 24.3406C110.106 24.584 110.755 24.8746 111.336 25.2126C111.931 25.5371 112.404 25.9629 112.756 26.4902C113.121 27.0175 113.303 27.7069 113.303 28.5586C113.303 29.3157 113.107 30.012 112.715 30.6474C112.337 31.2828 111.776 31.7965 111.032 32.1886C110.289 32.5806 109.369 32.7767 108.274 32.7767Z" fill="#151624"/>
<path d="M97.2679 32.7767C96.2404 32.7767 95.3278 32.5604 94.5302 32.1278C93.7461 31.6952 93.131 31.0868 92.6848 30.3027C92.2387 29.5186 92.0156 28.6195 92.0156 27.6056C92.0156 26.5511 92.2319 25.625 92.6645 24.8274C93.1107 24.0162 93.7258 23.3808 94.5099 22.9212C95.294 22.4615 96.2134 22.2317 97.2679 22.2317C98.2683 22.2317 99.147 22.448 99.9041 22.8806C100.675 23.3132 101.276 23.9081 101.709 24.6652C102.142 25.4087 102.358 26.2537 102.358 27.2C102.358 27.3352 102.351 27.4907 102.338 27.6664C102.338 27.8287 102.331 27.9977 102.317 28.1734H93.9624V26.4903H99.5797C99.5391 25.8684 99.3025 25.3749 98.8699 25.0099C98.4508 24.6314 97.9235 24.4421 97.2881 24.4421C96.815 24.4421 96.3824 24.5502 95.9903 24.7666C95.5982 24.9693 95.2873 25.2803 95.0575 25.6994C94.8276 26.1185 94.7127 26.6457 94.7127 27.2811V27.8692C94.7127 28.41 94.8209 28.8832 95.0372 29.2888C95.2535 29.6943 95.5509 30.0053 95.9295 30.2216C96.3215 30.4379 96.7609 30.546 97.2476 30.546C97.7478 30.546 98.1669 30.4379 98.5049 30.2216C98.8429 29.9918 99.0997 29.7011 99.2755 29.3496H102.054C101.864 29.985 101.547 30.5663 101.101 31.0936C100.654 31.6073 100.107 32.0196 99.458 32.3306C98.8091 32.628 98.079 32.7767 97.2679 32.7767Z" fill="#151624"/>
<path d="M84.8443 32.7767C83.8979 32.7767 83.0529 32.5469 82.3094 32.0872C81.5793 31.6276 81.0048 30.9989 80.5857 30.2013C80.1666 29.4036 79.957 28.4979 79.957 27.4839C79.957 26.47 80.1666 25.5709 80.5857 24.7868C81.0048 23.9892 81.5861 23.3673 82.3297 22.9212C83.0732 22.4615 83.9182 22.2317 84.8645 22.2317C85.6216 22.2317 86.2773 22.3736 86.8316 22.6575C87.3994 22.9414 87.8523 23.32 88.1903 23.7931V18.0339H90.9279V32.5334H88.535L88.2511 31.053H88.2308C88.0145 31.3775 87.7441 31.6681 87.4197 31.925C87.1087 32.1819 86.7369 32.3846 86.3043 32.5334C85.8852 32.6956 85.3985 32.7767 84.8443 32.7767ZM85.4932 30.4244C86.0339 30.4244 86.5139 30.3027 86.933 30.0593C87.3521 29.8025 87.6765 29.4577 87.9064 29.0251C88.1362 28.579 88.2511 28.072 88.2511 27.5042C88.2511 26.9229 88.1362 26.4159 87.9064 25.9833C87.6765 25.5507 87.3521 25.2127 86.933 24.9693C86.5139 24.7125 86.0339 24.584 85.4932 24.584C84.9659 24.584 84.486 24.7125 84.0534 24.9693C83.6343 25.2127 83.3098 25.5574 83.08 26.0036C82.8502 26.4362 82.7352 26.9296 82.7352 27.4839C82.7352 28.0517 82.8502 28.5587 83.08 29.0048C83.3098 29.451 83.6343 29.8025 84.0534 30.0593C84.486 30.3027 84.9659 30.4244 85.4932 30.4244Z" fill="#151624"/>
<path d="M73.0763 32.7767C72.2381 32.7767 71.5418 32.6415 70.9875 32.3711C70.4468 32.1008 70.0412 31.7357 69.7708 31.2761C69.5004 30.8164 69.3652 30.3095 69.3652 29.7552C69.3652 29.1333 69.5275 28.5925 69.8519 28.1329C70.1764 27.6597 70.6631 27.2879 71.312 27.0175C71.9609 26.7471 72.7721 26.6119 73.7455 26.6119H76.2803C76.2803 26.1252 76.206 25.7264 76.0573 25.4155C75.9221 25.091 75.7125 24.8477 75.4286 24.6854C75.1447 24.5232 74.7729 24.4421 74.3133 24.4421C73.7996 24.4421 73.3534 24.5638 72.9749 24.8071C72.5963 25.0369 72.3665 25.3884 72.2854 25.8616H69.6289C69.6965 25.1181 69.9398 24.4759 70.3589 23.9351C70.778 23.3943 71.3323 22.9752 72.0218 22.6778C72.7113 22.3804 73.4819 22.2317 74.3336 22.2317C75.2934 22.2317 76.1249 22.3939 76.8279 22.7184C77.5309 23.0293 78.0717 23.4957 78.4502 24.1176C78.8287 24.726 79.018 25.4696 79.018 26.3483V32.5334H76.7265L76.4223 30.9719H76.402C76.2533 31.2423 76.064 31.4924 75.8342 31.7222C75.6179 31.9385 75.3746 32.1278 75.1042 32.29C74.8338 32.4387 74.5296 32.5537 74.1916 32.6348C73.8536 32.7294 73.4819 32.7767 73.0763 32.7767ZM73.786 30.6677C74.1511 30.6677 74.4688 30.6069 74.7391 30.4852C75.0231 30.35 75.2664 30.1743 75.4692 29.958C75.672 29.7416 75.8275 29.4915 75.9356 29.2076C76.0573 28.9237 76.1384 28.6195 76.1789 28.2951H74.0699C73.6508 28.2951 73.3061 28.3492 73.0357 28.4573C72.7653 28.552 72.5693 28.6939 72.4476 28.8832C72.326 29.0589 72.2651 29.2685 72.2651 29.5118C72.2651 29.7552 72.326 29.9647 72.4476 30.1405C72.5828 30.3162 72.7586 30.4514 72.9749 30.546C73.2047 30.6272 73.4751 30.6677 73.786 30.6677Z" fill="#151624"/>
<path d="M62.7246 32.5334V22.475H65.1378L65.4014 24.4421H65.4217C65.6786 23.9419 65.9828 23.5295 66.3343 23.2051C66.6858 22.8806 67.0913 22.6373 67.551 22.475C68.0242 22.3128 68.5379 22.2317 69.0922 22.2317V25.1316H68.3419C67.9228 25.1316 67.5307 25.1789 67.1657 25.2735C66.8142 25.3682 66.51 25.5236 66.2531 25.7399C65.9963 25.9563 65.8002 26.2537 65.6651 26.6322C65.5299 26.9972 65.4623 27.4569 65.4623 28.0112V32.5334H62.7246Z" fill="#151624"/>
<path d="M56.1923 32.5331V20.5483H52.0352V18.3379H63.0669V20.5483H58.9097V32.5331H56.1923Z" fill="#151624"/>
</svg>
